<?xml version="1.0" encoding="UTF-8" standalone="no"?>
<svg
   width="429"
   height="70.03228551106186"
   viewBox="0 0 369.65517241379314 60.34451416112717"
   version="1.1"
   id="svg11"
   xmlns="http://www.w3.org/2000/svg"
   xmlns:svg="http://www.w3.org/2000/svg">
  <defs
     id="defs11" />
  <g
     id="SvgjsG1170"
     featurekey="JKiIdh-0"
     transform="matrix(0.16047364473342896,0,0,0.16047364473342896,-10.90883825591301,-10.908997417086304)"
     fill="#111111">
    <g
       id="g10">
      <path
         d="M137.64,190.279v131.441c0,29.025,23.614,52.64,52.64,52.64h131.441c29.025,0,52.64-23.614,52.64-52.64V190.279   c0-29.025-23.614-52.64-52.64-52.64H190.279C161.254,137.64,137.64,161.254,137.64,190.279z M354.36,190.279v131.441   c0,17.998-14.642,32.64-32.64,32.64H190.279c-17.998,0-32.64-14.642-32.64-32.64V190.279c0-17.998,14.642-32.64,32.64-32.64   h131.441C339.718,157.64,354.36,172.282,354.36,190.279z"
         id="path1" />
      <path
         d="M222.78,106.68v-28.7c0-5.523-4.477-10-10-10s-10,4.477-10,10v28.7c0,5.523,4.477,10,10,10S222.78,112.203,222.78,106.68z"
         id="path2" />
      <path
         d="M309.22,106.68v-28.7c0-5.523-4.477-10-10-10s-10,4.477-10,10v28.7c0,5.523,4.477,10,10,10S309.22,112.203,309.22,106.68z"
         id="path3" />
      <path
         d="M222.78,405.32c0-5.522-4.477-10-10-10s-10,4.478-10,10v28.7c0,5.522,4.477,10,10,10s10-4.478,10-10V405.32z"
         id="path4" />
      <path
         d="M289.22,405.32v28.7c0,5.522,4.477,10,10,10s10-4.478,10-10v-28.7c0-5.522-4.477-10-10-10S289.22,399.798,289.22,405.32z"
         id="path5" />
      <path
         d="M434.021,202.78h-28.7c-5.523,0-10,4.477-10,10s4.477,10,10,10h28.7c5.523,0,10-4.477,10-10S439.543,202.78,434.021,202.78   z"
         id="path6" />
      <path
         d="M434.021,289.22h-28.7c-5.523,0-10,4.478-10,10s4.477,10,10,10h28.7c5.523,0,10-4.478,10-10S439.543,289.22,434.021,289.22   z"
         id="path7" />
      <path
         d="M77.979,222.78h28.7c5.523,0,10-4.477,10-10s-4.477-10-10-10h-28.7c-5.523,0-10,4.477-10,10S72.457,222.78,77.979,222.78z"
         id="path8" />
      <path
         d="M77.979,309.22h28.7c5.523,0,10-4.478,10-10s-4.477-10-10-10h-28.7c-5.523,0-10,4.478-10,10S72.457,309.22,77.979,309.22z"
         id="path9" />
      <path
         d="M206.64,315.36h98.72c5.523,0,10-4.478,10-10v-98.72c0-5.523-4.477-10-10-10h-98.72c-5.523,0-10,4.477-10,10v98.72   C196.64,310.883,201.117,315.36,206.64,315.36z M216.64,216.64h78.72v78.72h-78.72V216.64z"
         id="path10" />
    </g>
  </g>
  <g
     id="SvgjsG1171"
     featurekey="A7DQL5-0"
     transform="matrix(2.450136661529541,0,0,2.450136661529541,80,0.6114206390094399)"
     fill="#111111">
    <path
       d="M0.68 13.96 l0 -9.72 l-0.68 0 l0 15.76 l0.68 0 l0 -5.4 l0 -0.64 z M0.96 14.6 l5.84 0 l0 5.4 l0.68 0 l0 -11.62 l-0.68 0 l0 5.58 l-5.84 0 l0 0.64 z M15.42 6.140000000000001 c0 0.08 0.23666 0.84334 0.71 2.29 s0.99 3.03 1.55 4.75 s1.3133 3.9934 2.26 6.82 l0.86 0 l-5.3 -15.76 l-0.16 0 l-5.26 15.76 l0.82 0 z M15.06 15.52 l-0.72 0 l1.2 4.48 l0.72 0 z M30.38 4.58 l-0.000019531 11.56 c0 0.36 0.0066602 0.76 0.02 1.2 s0.02 0.66666 0.02 0.68 c-0.02666 -0.04 -0.12332 -0.25666 -0.28998 -0.65 s-0.33 -0.74334 -0.49 -1.05 l-0.28 -0.54 l-0.72 0 l2.2 4.22 l0.18 0 l0 -15.42 l-0.64 0 z M24.759999999999998 7.9399999999999995 l0.27998 0.54 l0.72 0 l-2.22 -4.24 l-0.14 0 l0 15.46 l0.62 0 l0 -11.6 c0 -0.33334 -0.0066602 -0.72334 -0.02 -1.17 s-0.02 -0.67666 -0.02 -0.69 c0.01334 0.04 0.10668 0.26 0.28002 0.66 s0.34 0.74666 0.5 1.04 z M33.62 10.94 l0.000039062 9.06 l3.84 0 c1.1467 0 2.0534 -0.40666 2.72 -1.22 s1 -1.8667 1 -3.16 c0 -0.34666 -0.04334 -0.74332 -0.13 -1.19 s-0.23332 -0.88 -0.43998 -1.3 s-0.48666 -0.8 -0.84 -1.14 s-0.81 -0.57666 -1.37 -0.71 c0.56 -0.34666 0.96666 -0.81 1.22 -1.39 s0.38 -1.19 0.38 -1.83 c0 -1.2267 -0.34 -2.17 -1.02 -2.83 s-1.6067 -0.99 -2.78 -0.99 l-2.58 0 l0 6.22 l0.7 0 l-0.02 -5.4 l1.96 0 c1.1067 0 1.8867 0.29 2.34 0.87 s0.68 1.29 0.68 2.13 c0 0.90666 -0.20666 1.61 -0.62 2.11 s-0.98 0.75 -1.7 0.75 l-2.62 0 l0.44 0.88 l2.68 0 c0.54666 0 1.0133 0.12334 1.4 0.37 s0.70332 0.55666 0.94998 0.93 s0.43 0.79334 0.55 1.26 s0.18 0.92 0.18 1.36 c0 0.42666 -0.06 0.84666 -0.18 1.26 s-0.3 0.78334 -0.54 1.11 s-0.55334 0.59 -0.94 0.79 s-0.84666 0.3 -1.38 0.3 l-3.2 0 l0.02 -8.24 l-0.7 0 z M44.34 14.16 l0 -9.36 l4.8 0 l0 -0.56 l-5.36 0 l0 9.92 l0.56 0 z M49.34 20 l0 -0.54 l-5 0 l0 -4.14 l0.8 0 l0 -0.54 l-1.36 0 l0 5.22 l5.56 0 z M56.339999999999996 15.219999999999999 c0.85334 -0.48 1.5067 -1.1567 1.96 -2.03 s0.68 -1.8633 0.68 -2.97 l0 -0.28 c0 -1.64 -0.49 -3 -1.47 -4.08 s-2.3766 -1.62 -4.19 -1.62 l-1.38 0 l0 6.34 c0.22666 0.01334 0.45332 0.02 0.67998 0.02 l0 -5.72 l0.66 0 c1.64 0 2.88 0.47666 3.72 1.43 s1.26 2.1766 1.26 3.67 l0 0.22 c0 1.48 -0.42 2.6934 -1.26 3.64 s-2.08 1.42 -3.72 1.42 l-0.66 0 l0 0 l-0.68 0 l0 0.64 c0.4 0.01334 0.66666 0.02 0.8 0.02 l0.58 0 c0.92 0 1.7267 -0.14 2.42 -0.42 l2.48 4.5 l0.8 0 z M66.02 15.219999999999999 c0.85334 -0.48 1.5067 -1.1567 1.96 -2.03 s0.68 -1.8633 0.68 -2.97 l0 -0.28 c0 -1.64 -0.49 -3 -1.47 -4.08 s-2.3766 -1.62 -4.19 -1.62 l-1.38 0 l0 6.34 c0.22666 0.01334 0.45332 0.02 0.67998 0.02 l0 -5.72 l0.66 0 c1.64 0 2.88 0.47666 3.72 1.43 s1.26 2.1766 1.26 3.67 l0 0.22 c0 1.48 -0.42 2.6934 -1.26 3.64 s-2.08 1.42 -3.72 1.42 l-0.66 0 l0 0 l-0.68 0 l0 0.64 c0.4 0.01334 0.66666 0.02 0.8 0.02 l0.58 0 c0.92 0 1.7267 -0.14 2.42 -0.42 l2.48 4.5 l0.8 0 z M79.56 4.24 l-0.86 0 l-3.78 10.2 l0 5.56 l0.84 0 l0 -5.56 z M72.72 5.699999999999999 l-0.54 -1.46 l-0.88 0 l0.56 1.46 l0.86 0 z M87.82 16.06 l0 -11.82 l-0.66 0 l0 11.82 l0.66 0 z M93.2 20 l0 -0.68 l-5.38 0 l0 -1.96 l-0.66 0 l0 2.64 l6.04 0 z M96.46 16.06 l0 -11.82 l-0.66 0 l0 11.82 l0.66 0 z M101.84 20 l0 -0.68 l-5.38 0 l0 -1.96 l-0.66 0 l0 2.64 l6.04 0 z M111.38 19.96 l0.039942 -0.63998 c-1.96 -0.13334 -3.52 -0.94668 -4.68 -2.44 c-1.1067 -1.3867 -1.66 -3.06 -1.66 -5.02 c0 -1.0267 0.16666 -1.9167 0.5 -2.67 s0.83334 -1.4833 1.5 -2.19 c1.3333 -1.4 3 -2.1 5 -2.1 c1.2133 0 2.3066 0.26 3.28 0.78 s1.7667 1.2467 2.38 2.18 l0.48 -0.38 c-0.66666 -1.0133 -1.5333 -1.8067 -2.6 -2.38 c-1.0133 -0.54666 -2.16 -0.81332 -3.44 -0.79998 c-1.08 0 -2.0934 0.18334 -3.04 0.55 s-1.78 0.93 -2.5 1.69 c-0.72 0.77334 -1.2633 1.5733 -1.63 2.4 s-0.55 1.8 -0.55 2.92 c0.01334 2.12 0.62 3.9334 1.82 5.44 c1.28 1.6133 2.98 2.5 5.1 2.66 z M112.6 19.98002 c1.0933 -0.06666 2.0934 -0.32664 3 -0.77998 c1.04 -0.53334 1.9133 -1.2867 2.62 -2.26 l-0.46 -0.4 c-0.64 0.88 -1.4467 1.5733 -2.42 2.08 c-0.84 0.42666 -1.76 0.66666 -2.76 0.72 z"
       id="path11" />
  </g>
</svg>
