<?xml version="1.0" encoding="UTF-8" standalone="no"?>
<svg
	width="70.032654"
	height="70.03228"
	viewBox="0 0 60.344832 60.344508"
	version="1.1"
	id="svg11"
	xmlns="http://www.w3.org/2000/svg"
	xmlns:svg="http://www.w3.org/2000/svg"
>
	<style>
		path {
			fill: #000000;
		}
		
		@media(prefers-color-scheme: dark){
			path {
				fill: #FFFFFF;
			}
		}
	</style>
	<defs
		id="defs11"
	/>
	<g
		 id="SvgjsG1170"
		 featurekey="JKiIdh-0"
		 transform="matrix(0.16047364,0,0,0.16047364,-10.908838,-10.908998)"
		 fill="#111111">
		<g
			 id="g10">
			<path
				 d="M 137.64,190.279 V 321.72 c 0,29.025 23.614,52.64 52.64,52.64 h 131.441 c 29.025,0 52.64,-23.614 52.64,-52.64 V 190.279 c 0,-29.025 -23.614,-52.64 -52.64,-52.64 H 190.279 c -29.025,10e-4 -52.639,23.615 -52.639,52.64 z m 216.72,0 V 321.72 c 0,17.998 -14.642,32.64 -32.64,32.64 H 190.279 c -17.998,0 -32.64,-14.642 -32.64,-32.64 V 190.279 c 0,-17.998 14.642,-32.64 32.64,-32.64 H 321.72 c 17.998,10e-4 32.64,14.643 32.64,32.64 z"
				 id="path1" />
			<path
				 d="m 222.78,106.68 v -28.7 c 0,-5.523 -4.477,-10 -10,-10 -5.523,0 -10,4.477 -10,10 v 28.7 c 0,5.523 4.477,10 10,10 5.523,0 10,-4.477 10,-10 z"
				 id="path2" />
			<path
				 d="m 309.22,106.68 v -28.7 c 0,-5.523 -4.477,-10 -10,-10 -5.523,0 -10,4.477 -10,10 v 28.7 c 0,5.523 4.477,10 10,10 5.523,0 10,-4.477 10,-10 z"
				 id="path3" />
			<path
				 d="m 222.78,405.32 c 0,-5.522 -4.477,-10 -10,-10 -5.523,0 -10,4.478 -10,10 v 28.7 c 0,5.522 4.477,10 10,10 5.523,0 10,-4.478 10,-10 z"
				 id="path4" />
			<path
				 d="m 289.22,405.32 v 28.7 c 0,5.522 4.477,10 10,10 5.523,0 10,-4.478 10,-10 v -28.7 c 0,-5.522 -4.477,-10 -10,-10 -5.523,0 -10,4.478 -10,10 z"
				 id="path5" />
			<path
				 d="m 434.021,202.78 h -28.7 c -5.523,0 -10,4.477 -10,10 0,5.523 4.477,10 10,10 h 28.7 c 5.523,0 10,-4.477 10,-10 0,-5.523 -4.478,-10 -10,-10 z"
				 id="path6" />
			<path
				 d="m 434.021,289.22 h -28.7 c -5.523,0 -10,4.478 -10,10 0,5.522 4.477,10 10,10 h 28.7 c 5.523,0 10,-4.478 10,-10 0,-5.522 -4.478,-10 -10,-10 z"
				 id="path7" />
			<path
				 d="m 77.979,222.78 h 28.7 c 5.523,0 10,-4.477 10,-10 0,-5.523 -4.477,-10 -10,-10 h -28.7 c -5.523,0 -10,4.477 -10,10 0,5.523 4.478,10 10,10 z"
				 id="path8" />
			<path
				 d="m 77.979,309.22 h 28.7 c 5.523,0 10,-4.478 10,-10 0,-5.522 -4.477,-10 -10,-10 h -28.7 c -5.523,0 -10,4.478 -10,10 0,5.522 4.478,10 10,10 z"
				 id="path9" />
			<path
				 d="m 206.64,315.36 h 98.72 c 5.523,0 10,-4.478 10,-10 v -98.72 c 0,-5.523 -4.477,-10 -10,-10 h -98.72 c -5.523,0 -10,4.477 -10,10 v 98.72 c 0,5.523 4.477,10 10,10 z m 10,-98.72 h 78.72 v 78.72 h -78.72 z"
				 id="path10" />
		</g>
	</g>
</svg>
