<?xml version="1.0" encoding="UTF-8" standalone="no"?>
<!-- Created with Inkscape (http://www.inkscape.org/) -->

<svg
   width="26.458334mm"
   height="19.84375mm"
   viewBox="0 0 26.458334 19.84375"
   version="1.1"
   id="svg1"
   xmlns="http://www.w3.org/2000/svg"
   xmlns:svg="http://www.w3.org/2000/svg">
  <defs
     id="defs1" />
  <g
     id="layer1">
    <path
       id="path5"
       style="stroke-width:0.79375"
       d="M 0,0 V 13.229167 A 6.6145835,6.6145835 0 0 0 6.6145833,19.84375 6.6145835,6.6145835 0 0 0 13.229167,13.229167 6.6145835,6.6145835 0 0 1 19.84375,6.6145833 6.6145835,6.6145835 0 0 1 26.458333,13.229167 V 0 Z m 6.981486,6.6259521 a 6.6145835,6.6145835 0 0 1 0.1080037,0.00723 6.6145835,6.6145835 0 0 0 -0.1080037,-0.00723 z m 0.4051432,0.035657 a 6.6145835,6.6145835 0 0 1 0.074414,0.00775 6.6145835,6.6145835 0 0 0 -0.074414,-0.00775 z M 5.584672,6.7045003 A 6.6145835,6.6145835 0 0 0 5.2761637,6.7659953 6.6145835,6.6145835 0 0 1 5.584672,6.7045003 Z m 2.245341,0.023771 a 6.6145835,6.6145835 0 0 1 0.064596,0.012919 6.6145835,6.6145835 0 0 0 -0.064596,-0.012919 z m 0.3787883,0.082682 a 6.6145835,6.6145835 0 0 1 0.075448,0.018604 6.6145835,6.6145835 0 0 0 -0.075448,-0.018604 z m 0.4283976,0.1209228 a 6.6145835,6.6145835 0 0 1 0.073897,0.025322 6.6145835,6.6145835 0 0 0 -0.073897,-0.025322 z M 4.5371908,6.963916 A 6.6145835,6.6145835 0 0 0 4.2483195,7.0621012 6.6145835,6.6145835 0 0 1 4.5371908,6.963916 Z m 4.4612264,0.096635 a 6.6145835,6.6145835 0 0 1 0.083716,0.032556 6.6145835,6.6145835 0 0 0 -0.083716,-0.032556 z m 0.4263305,0.1808676 a 6.6145835,6.6145835 0 0 1 0.031006,0.015503 6.6145835,6.6145835 0 0 0 -0.031006,-0.015503 z m 0.3296957,0.1674316 a 6.6145835,6.6145835 0 0 1 0.0894,0.049093 6.6145835,6.6145835 0 0 0 -0.0894,-0.049093 z M 10.12548,7.6248576 a 6.6145835,6.6145835 0 0 1 0.04134,0.024805 6.6145835,6.6145835 0 0 0 -0.04134,-0.024805 z m 0.343648,0.2304769 a 6.6145835,6.6145835 0 0 1 0.077,0.056327 6.6145835,6.6145835 0 0 0 -0.077,-0.056327 z m 0.313676,0.2397786 a 6.6145835,6.6145835 0 0 1 0.06511,0.052193 6.6145835,6.6145835 0 0 0 -0.06511,-0.052193 z m -8.3255896,0.00103 A 6.6145835,6.6145835 0 0 0 2.2267375,8.2982015 6.6145835,6.6145835 0 0 1 2.4572144,8.0961466 Z M 11.120768,8.388115 a 6.6145835,6.6145835 0 0 1 0.06098,0.058394 6.6145835,6.6145835 0 0 0 -0.06098,-0.058394 z m 0.276469,0.2738851 a 6.6145835,6.6145835 0 0 1 0.05839,0.060978 6.6145835,6.6145835 0 0 0 -0.05839,-0.060978 z M 1.6836182,8.8413208 A 6.6145835,6.6145835 0 0 0 1.4815633,9.0717977 6.6145835,6.6145835 0 0 1 1.6836182,8.8413208 Z M 11.696444,8.9958333 a 6.6145835,6.6145835 0 0 1 0.05219,0.065112 6.6145835,6.6145835 0 0 0 -0.05219,-0.065112 z m 0.235644,0.3017904 a 6.6145835,6.6145835 0 0 1 0.05633,0.076998 6.6145835,6.6145835 0 0 0 -0.05633,-0.076998 z m 0.262,0.379305 a 6.6145835,6.6145835 0 0 1 0.0248,0.041341 6.6145835,6.6145835 0 0 0 -0.0248,-0.041341 z m 0.191719,0.3229777 a 6.6145835,6.6145835 0 0 1 0.04909,0.089401 6.6145835,6.6145835 0 0 0 -0.04909,-0.089401 z m 0.201022,0.3880896 a 6.6145835,6.6145835 0 0 1 0.0155,0.03101 6.6145835,6.6145835 0 0 0 -0.0155,-0.03101 z m 0.163814,0.373621 a 6.6145835,6.6145835 0 0 1 0.03256,0.08372 6.6145835,6.6145835 0 0 0 -0.03256,-0.08372 z M 0.4475179,10.862903 a 6.6145835,6.6145835 0 0 0 -0.0981852,0.288871 6.6145835,6.6145835 0 0 1 0.0981852,-0.288871 z m 12.4390341,0.269751 a 6.6145835,6.6145835 0 0 1 0.02532,0.0739 6.6145835,6.6145835 0 0 0 -0.02532,-0.0739 z m 0.127641,0.426847 a 6.6145835,6.6145835 0 0 1 0.0186,0.07545 6.6145835,6.6145835 0 0 0 -0.0186,-0.07545 z M 0.15141195,11.890747 a 6.6145835,6.6145835 0 0 0 -0.06149496,0.308508 6.6145835,6.6145835 0 0 1 0.06149496,-0.308508 z m 12.95114705,0.05839 a 6.6145835,6.6145835 0 0 1 0.01292,0.0646 6.6145835,6.6145835 0 0 0 -0.01292,-0.0646 z m 0.07183,0.433566 a 6.6145835,6.6145835 0 0 1 0.0078,0.07441 6.6145835,6.6145835 0 0 0 -0.0078,-0.07441 z m 0.03617,0.371553 a 6.6145835,6.6145835 0 0 1 0.0072,0.108004 6.6145835,6.6145835 0 0 0 -0.0072,-0.108004 z" />
  </g>
</svg>
